# xmcd
#
# Track frame offsets: 
#        150
#        46800
#        67950
#        95400
#        126375
#        159900
#        199575
#        231450
#
# Disc length: 3586 seconds
#
# Revision: 1
# Processed by: cddbd v1.5.2PL0 Copyright (c) Steve Scherf et al.
# Submitted via: ExactAudioCopy v0.95b4
#
DISCID=650e0008
DTITLE=Ralph Moore - 623 C Street
DYEAR=1987
DGENRE=Jazz
TTITLE0=Un Poco Loco
TTITLE1=Christina
TTITLE2=Black Diamond
TTITLE3=It Never Entered My Mind
TTITLE4=Cecilia
TTITLE5=623 C Street
TTITLE6=Deceptacon
TTITLE7=Speak Low
EXTD=YEAR: 1987
EXTT0=
EXTT1=
EXTT2=
EXTT3=
EXTT4=
EXTT5=
EXTT6=
EXTT7=
PLAYORDER=
